<svg width="50" height="40" viewBox="0 0 50 40" fill="none" xmlns="http://www.w3.org/2000/svg">
<path d="M12 1.33333H49.3333V6.66667H12V1.33333ZM12 22.6667V17.3333H49.3333V22.6667H12ZM4 0C5.06087 0 6.07828 0.421427 6.82843 1.17157C7.57857 1.92172 8 2.93913 8 4C8 5.06087 7.57857 6.07828 6.82843 6.82843C6.07828 7.57857 5.06087 8 4 8C2.93913 8 1.92172 7.57857 1.17157 6.82843C0.421427 6.07828 0 5.06087 0 4C0 2.93913 0.421427 1.92172 1.17157 1.17157C1.92172 0.421427 2.93913 0 4 0V0ZM4 16C5.06087 16 6.07828 16.4214 6.82843 17.1716C7.57857 17.9217 8 18.9391 8 20C8 21.0609 7.57857 22.0783 6.82843 22.8284C6.07828 23.5786 5.06087 24 4 24C2.93913 24 1.92172 23.5786 1.17157 22.8284C0.421427 22.0783 0 21.0609 0 20C0 18.9391 0.421427 17.9217 1.17157 17.1716C1.92172 16.4214 2.93913 16 4 16V16ZM12 38.6667V33.3333H49.3333V38.6667H12ZM4 32C5.06087 32 6.07828 32.4214 6.82843 33.1716C7.57857 33.9217 8 34.9391 8 36C8 37.0609 7.57857 38.0783 6.82843 38.8284C6.07828 39.5786 5.06087 40 4 40C2.93913 40 1.92172 39.5786 1.17157 38.8284C0.421427 38.0783 0 37.0609 0 36C0 34.9391 0.421427 33.9217 1.17157 33.1716C1.92172 32.4214 2.93913 32 4 32V32Z"/>
</svg>
